<?xml version="1.0" standalone="no"?>
<!DOCTYPE svg PUBLIC "-//W3C//DTD SVG 1.1//EN" "http://www.w3.org/Graphics/SVG/1.1/DTD/svg11.dtd">
<svg xmlns="http://www.w3.org/2000/svg">
<metadata>Generated by Fontastic.me</metadata>
<defs>
<font id="newmio" horiz-adv-x="512">
<font-face font-family="newmio" units-per-em="512" ascent="480" descent="-32"/>
<missing-glyph horiz-adv-x="512" />

<glyph glyph-name="a-down" unicode="&#57356;" d="M509 372c0-5-2-10-5-13-7-7-14-13-21-20-14-14-28-28-42-42-51-51-102-101-153-153-5-5-12-10-17-16-9-9-18-9-27 0-34 34-68 67-102 100-33 34-67 67-101 101-11 10-21 19-30 28-2 2-3 3-4 5-5 8-4 16 1 22 6 6 16 7 23 2 2-1 3-3 4-4 42-41 83-82 125-123 30-31 61-60 92-91 1-1 2-2 3-2 1-2 3-2 5 0 1 1 2 2 3 3 11 11 23 22 34 34 43 42 85 85 128 127 18 17 36 36 54 53 4 4 8 7 15 6 8-1 15-8 15-17z"/>
<glyph glyph-name="a-left" unicode="&#57357;" d="M372 509c-5 0-10-2-13-5-7-7-13-14-20-21-14-14-28-28-42-42-51-51-101-102-153-153-5-5-10-12-16-17-9-9-9-18 0-27 34-34 67-68 100-102 34-33 67-67 101-101 9-9 18-19 27-29 2-2 3-3 5-4 8-5 16-4 22 1 6 6 7 16 2 23-1 2-3 3-4 4-41 42-82 83-123 125-31 30-60 61-91 92-1 1-2 2-2 3-2 1-2 3 0 5 1 1 2 2 3 3 11 11 22 23 34 34 42 43 85 85 127 128 17 18 36 36 53 54 4 4 7 8 6 15 0 7-7 14-16 14z"/>
<glyph glyph-name="a-right" unicode="&#57358;" d="M140 509c5 0 10-2 13-5 7-7 13-14 20-21 14-14 28-28 42-42 51-51 101-102 153-153 5-5 10-12 16-17 9-9 9-18 0-27-34-34-67-68-100-102-34-33-67-67-101-101-9-9-18-19-27-29-2-2-3-3-5-4-8-5-16-4-22 1-6 6-7 16-2 23 1 2 3 3 4 4 41 42 82 83 123 125 31 30 60 61 91 92 1 1 2 2 2 3 2 1 2 3 0 5-1 1-2 2-3 3-11 11-22 23-34 34-42 43-85 85-127 128-17 18-36 36-53 54-4 4-7 8-6 15 0 7 7 14 16 14z"/>
<glyph glyph-name="a-up" unicode="&#57359;" d="M509 140c0 5-2 10-5 13-7 7-14 13-21 20-14 14-28 28-42 42-51 51-102 101-153 153-5 5-12 10-17 16-9 9-18 9-27 0-34-34-68-67-102-100-33-34-67-67-101-101-11-10-21-19-30-28-2-2-3-3-4-5-5-8-4-16 1-22 6-6 16-7 23-2 2 1 3 3 4 4 42 41 83 82 125 123 30 31 61 60 92 91 1 1 2 2 3 2 1 2 3 2 5 0 1-1 2-2 3-3 11-11 23-22 34-34 43-42 85-85 128-127 18-17 36-36 54-53 4-4 8-7 15-6 8 1 15 8 15 17z"/>
<glyph glyph-name="asc" unicode="&#57360;" d="M32 256l128 0 0-224 192 0 0 224 128 0-224 224z"/>
<glyph glyph-name="cancel" unicode="&#57361;" d="M511 467c0-1-1-2-1-3-2-3-5-5-8-8-53-54-107-107-160-160-12-12-25-26-37-38-1-1-2-2-3-3-2-3-2-4 0-7 2-2 4-5 7-7 60-60 128-128 187-188 11-11 11-10 0-21-9-8-17-17-25-25-2-2-4-4-6-5-2-2-4-2-6 0-3 2-5 5-8 8-58 59-126 127-185 186-2 2-5 5-7 7-4 3-5 3-9 0-2-2-5-5-7-7-62-62-123-123-185-185-11-11-10-11-21 0-9 11-20 20-29 30-4 4-4 6 0 10 2 2 5 5 7 7 57 57 114 114 170 171 6 7 13 14 19 20 3 3 3 5 0 9-2 2-3 4-5 6-12 11-24 24-35 35-52 51-104 108-155 160-9 9-9 9 0 18 8 8 16 16 24 24 2 1 3 3 5 4 6 5 7 5 13 0 2-2 4-4 6-6 46-46 93-97 139-143 16-16 32-33 49-50 8-8 8-8 16 0 65 65 129 130 195 195 3 3 6 6 9 8 2 2 4 1 6 0 1 0 1-1 2-1 12-12 24-24 36-36 0-1 1-3 2-5z"/>
<glyph glyph-name="cart" unicode="&#57362;" d="M308 155c-43 0-87 0-130 0-2 0-5 0-7 0-7 1-15 6-17 15-3 11-7 21-10 33-4 15-9 30-13 46-7 25-14 51-21 78-7 21-13 44-19 65-1 4-2 7-3 11 0 1-1 3-1 4 0 1-1 1-2 2-3 0-5 0-8 1-8 0-18 0-26 1-5 0-11 0-16 1-3 0-7 0-10 1-13 0-20 7-22 17-1 11 7 20 15 22 2 0 6 1 9 0 1 0 1 0 2 0 8 0 16-1 24-1 8 0 16 0 24-1 1 0 2 0 2 0 7 0 15 0 22-1 7 0 12-4 16-8 2-2 3-5 4-8 2-6 3-12 5-19 7-25 14-49 20-74 8-28 16-54 23-82 5-19 11-39 16-58 0-1 0-1 0-2 0-1 1-2 3-2 1 0 2 0 3 0 77 0 154 0 231 0 1 0 2 0 3 0 1 0 1 0 2 1 0 1 1 3 1 4 4 14 8 29 12 44 5 18 11 37 16 55 2 8 4 15 6 24 0 0 0 1 0 1 1 3 1 3 4 3 12 0 24 0 36 0 3 0 3 0 3-3-3-11-6-21-9-31-8-26-15-51-22-76-4-15-9-32-13-47-2-8-7-12-16-14-3-1-5-1-8-1-1 0-2 0-3 0-40-1-83-1-126-1z m-129-99c15-14 32-20 51-17 15 2 27 9 35 21 10 14 14 29 10 44-3 13-9 23-19 30-13 10-29 14-46 11-9-2-17-5-25-11-13-11-20-24-20-41 0-14 5-26 14-37z m28 33c-2 8 3 16 12 17 4 0 8 0 11-3 4-3 8-9 6-15-3-6-8-10-13-10 0 0-1 0-1 0-8 1-14 6-15 11z m218-39c7 6 13 13 16 23 3 7 4 15 4 23-1 10-4 20-9 27-12 17-34 25-53 23-16-2-30-9-39-22-8-11-12-25-9-39 2-11 7-22 15-30 11-11 25-16 38-16 14-1 27 3 37 11z m-36 29c-7 0-14 6-14 14 0 9 8 15 15 15 7 0 14-7 14-15 0-8-7-14-15-14z"/>
<glyph glyph-name="checkmark" unicode="&#57363;" d="M508 382c0-1-1-2-2-3-3-3-6-6-9-9-10-9-19-17-27-26-30-29-59-57-89-85-39-38-78-75-118-113-19-18-39-37-58-56-10-10-12-10-23 0-5 5-10 10-15 14-51 53-104 104-156 156-10 10-10 10 0 20 11 10 21 20 32 30 7 7 8 7 16 0 2-1 4-3 7-5 39-40 79-80 119-119 3-3 5-5 9-8 2-1 4-2 5 0 2 2 5 4 7 7 36 35 73 71 108 106 27 25 54 51 80 77 20 18 39 36 58 55 1 1 2 2 3 3 5 4 7 5 11 0 13-12 26-26 39-38 2-1 3-2 3-6z"/>
<glyph glyph-name="compare" unicode="&#57364;" d="M184 257c0 56 0 112 0 168 0 5 0 10 0 15 1 6 3 9 10 9 3 0 6 0 9 0 36 0 70 0 106 0 18 0 19-2 19-19 0-74 0-146 0-220 0-41 0-82 0-123 0-4 0-8 0-12-1-10-2-13-14-13-1 0-3 0-5 0-36 0-71 0-107 0-1 0-1 0-2 0-15 0-16 3-16 17 0 22 0 45 0 67 0 37 0 74 0 111z m-38 77c0 19 0 20-19 20-35 0-70 0-104 0-3 0-5 0-7 0-10-1-12-2-12-13 0-4 0-9 0-14 0-66 0-131 0-197 0-17 0-34 0-51 0-14 2-17 15-17 1 0 3 0 4 0 34 0 69 0 104 0 19 0 19 1 19 21 0 42 0 83 0 125 0 42 0 84 0 126z m220-225c0-11 0-21 0-31 0-12 2-15 14-15 7 0 14 0 21 0 30 0 60 0 89 0 17 0 19 2 19 19 0 61 0 122 0 183 0 18-1 19-19 19-35 0-70 0-106 0-18 0-18-1-18-20 0-31 0-60 0-91 0-21 0-43 0-64z"/>
<glyph glyph-name="delete" unicode="&#57365;" d="M261 10c-47 0-95 0-142 0-7 0-15 1-22 4-13 8-21 18-24 33-1 3-1 5-1 8 0 7-1 16-1 23 0 1 0 1 0 2 0 7-1 15-1 22 0 8-1 14-1 21 0 6-1 11-1 17 0 4 0 8-1 14-1 7-1 14-1 21 0 7-1 14-1 22 0 1 0 2 0 3-2 12-2 24-3 38-2 8-3 18-4 28-1 10-1 20-2 30-1 9-1 19-2 29-1 9-1 19-2 28-1 11-1 21-2 30 0 5-1 9-1 14 0 1 0 3-1 4 0 1-1 2-3 2-2 0-4 0-6 0-3 0-6 0-9 1-5 4-10 8-13 14-5 9-1 21 11 27 3 1 6 2 9 2 2 0 4 0 6 0 40 0 80 0 120 0 1 0 3 0 4 0 2 0 4 2 5 4 2 4 5 9 8 13 13 15 28 26 46 34 13 4 26 7 39 6 21-1 40-7 58-20 11-8 21-19 27-31 0-1 1-1 1-2 1-1 2-2 3-2 2 0 3 0 5 0 41 0 81 0 122 0 2 0 4 0 6 0 12-2 21-12 20-23-1-9-5-15-13-18-4-1-7-2-11-2-3 0-5 0-8 0-2 0-3-2-3-3 0-1 0-3-1-4-1-9-1-18-2-27 0-7-1-14-1-21 0-8-1-15-2-23 0-5 0-11-1-16-1-7-1-14-1-20 0-7-1-14-1-22 0-1 0-1 0-2 0-7-1-15-1-22-1-13-2-24-2-36 0-7-1-13-1-21 0-8-1-15-2-23 0-5 0-10-1-15-1-7-1-14-1-20 0-8-1-15-2-23 0-2 0-3 0-3-1-12-1-25-2-37 0-7 0-12-1-18-4-17-16-32-34-36-4-4-8-4-13-4-25 0-51 0-76 0-23 0-44 0-66 0z m0 394c-53 0-106 0-160 0-2 0-3 0-5 0-2 0-2-1-2-3 0-2 0-4 0-6 0-2 0-4 0-6 0-7 1-14 1-21 0-6 1-11 1-16 0-7 1-14 1-20 0-7 1-15 1-22 0-5 1-11 1-16 0-7 1-13 1-21 0-7 1-14 1-22 0-6 1-11 1-18 0-7 1-14 1-20 0-7 1-14 1-23 0-1 0-1 0-2 0-7 1-14 1-21 0-7 1-14 1-21 0-5 2-10 2-15 1-8 1-16 2-25 0-6 1-13 1-19 1-9 1-17 2-27 0-5 1-6 6-6 26 0 52 0 79-1 65-1 131 0 197-1 1 0 3 0 4 0 1 0 1 0 2 0 1 0 2 1 2 2 0 1 0 1 0 2 0 4 1 9 1 13 2 10 2 20 3 29 0 8 1 16 1 24 0 1 0 2 0 3 0 7 1 14 1 20 0 8 1 15 1 23 0 5 1 10 1 15 0 7 1 15 1 21 0 7 1 15 1 22 0 1 0 1 0 2 0 8 1 15 1 22 0 7 1 14 1 21 0 5 1 11 1 16 1 7 1 14 1 21 0 7 1 15 1 23 0 5 1 10 1 15 1 7 1 14 1 23 0 7 1 14 1 22 0 1 0 3 0 4 0 2 0 4 0 6 0 1-1 2-2 2-2 0-4 0-5 0-47 1-100 1-153 1z m-36 42c2 0 3 0 5 0 10 0 19 0 27 0 11 0 24 0 35 0 1 0 2 0 3 0 0 0 0 1 0 1 0 2-1 2-2 3-12 8-26 12-41 10-9-1-19-4-27-10 2 0 1-1 0-4z m-24-326c-1 11-1 21-2 33-1 10-1 20-2 30-1 11-1 22-2 32 0 8-1 16-1 25 0 1 0 2 0 2 0 7-1 14-1 21 0 8-2 17-2 25 0 1 0 1 0 2 0 7-1 15-1 22 0 9-1 16-1 24 0 5-1 9-1 14 0 6-2 11-7 16-7 6-17 8-25 4-9-4-14-13-13-23 0-2 0-5 1-7 0-8 1-15 1-24 0-5 1-11 1-16 0-7 1-14 1-21 0-9 1-17 1-25 0-1 0-2 0-2 0-7 2-14 2-22 0-8 1-16 1-24 0-1 0-1 0-2 0-7 1-15 1-23 0-8 1-15 1-23 0-5 1-12 1-17 1-9 1-18 2-27 0-4 1-9 1-12 0-3 1-5 2-7 5-10 20-15 31-7 7 4 10 10 10 17 0 1 0 3 0 4 2 4 1 8 1 11z m120-15c0-3 1-7 3-9 7-12 25-14 35-3 3 3 5 7 6 11 0 6 1 11 1 15 0 2 0 3 0 5 0 7 1 15 1 22 0 9 1 16 1 24 0 5 1 11 1 16 0 8 1 15 1 22 1 10 1 20 2 30 1 11 1 21 2 32 0 9 1 17 1 25 0 1 0 1 0 2 0 7 1 15 1 22 0 9 1 16 1 24 0 1 0 2 0 3 2 16-15 29-30 24-9-3-14-11-15-20 0-3 0-6 0-9-1-10-1-20-2-31 0-1 0-2 0-2 0-7-1-14-1-22 0-8-1-16-1-24 0-5-1-11-1-16-1-13-2-26-2-38 0-8-1-17-1-25 0 0 0-1 0-1 0-7-1-14-1-21 0-8-1-17-1-25 0-1 0-1 0-2-1-8-1-16-3-24 2-1 2-2 2-5z m-37 169c0 25 0 50 0 74 0 2 0 5 0 7-2 10-10 15-18 17-13 2-26-8-25-22 0-1 0-2 0-3 0-79 0-158 0-236 0-2 0-3 0-6 0-3 1-7 3-9 8-12 25-14 36-2 3 4 5 8 5 12 0 3 0 4 0 6 0 39 0 77 0 117-1 15-1 30-1 45z"/>
<glyph glyph-name="desc" unicode="&#57366;" d="M480 256l-128 0 0 224-192 0 0-224-128 0 224-224z"/>
<glyph glyph-name="error" unicode="&#57367;" d="M297 330c0-54 0-106 0-159 0-4 0-9-1-13 0-3-2-4-5-5-2 0-5-1-7-1-19 0-38 0-57 0-2 0-3 0-5 0-5 0-6 2-7 7 0 3 0 6 0 10 0 107 0 215 0 323 0 16 0 16 17 17 17 0 33 0 50 0 3 0 6 0 8 0 4 0 6-2 6-6 0-4 0-8 0-13 1-54 1-107 1-160z m-41-247c-9 0-18 0-28 0-11 0-12-1-13-12 0 0 0-1 0-1 0-18 0-34 0-52 0-2 0-5 1-7 1-4 2-5 6-6 2 0 5 0 7 0 9 0 16 0 24 0 10 0 21 0 32 0 10 0 12 2 12 12 0 13 0 24 0 36 0 8 0 16 0 24 0 6-2 8-8 8-11-2-22-2-33-2z"/>
<glyph glyph-name="fax" unicode="&#57368;" d="M412 49l-312 0c-6 0-10 5-10 10l0 243c0 6 5 10 10 10l312 0c6 0 10-5 10-10l0-243c0-5-5-10-10-10z m-301 22l289 0 0 221-289 0z m395 152l0 240-500 0 0-240 67 0 0 43-25 0 0 154 415 0 0-155-25 0 0-43 68 0z m-125 165c-14 0-25-11-25-24 0-15 12-25 25-25 13 0 25 11 25 25 0 14-12 24-25 24z m-62-30c7 0 11 6 11 11 0 6-5 10-11 10l-131 0c-6 0-10-5-10-10 0-7 5-11 10-11z m-111-100c-8-5-14-12-19-20-1-4-3-6-4-9 10-26 26-52 48-74 23-23 49-39 75-49 3 2 5 3 8 5 9 4 16 11 21 18l-36 36-7-7c-2-2-4-2-6-2-2 0-4 1-6 2l-45 45c-4 3-4 9 0 12l7 7z"/>
<glyph glyph-name="fb" unicode="&#57369;" d="M298 115c0-34 0-68 0-102 0-11 0-11-12-11-26 0-52 0-77 0-2 0-4 0-5 0-4 0-6 2-6 6 0 3 0 6 0 8 0 67 0 134 0 200 0 12 0 12-13 12-17 0-35 0-53 0-2 0-4 0-5 0-8 0-9 1-9 10 0 1 0 2 0 2 0 23 0 47 0 70 0 1 0 2 0 2 0 9 1 10 9 10 19 0 40 0 59 0 14 0 13-1 13 12 0 18 0 37 0 54 1 16 1 32 7 48 14 42 45 65 88 72 17 4 34 3 51 2 3 0 6 0 9 0 8 0 17 0 25 0 12 0 14-2 14-14 0-22 0-42 0-64 0-9 0-9-10-9-18 0-37 0-55-2-4 0-7-1-11-2-11-3-16-11-18-23-2-22-1-44-1-66 0-6 1-6 8-6 24 0 47 0 70 0 2 0 5 0 7 0 5 0 5-1 5-7-1-7-1-14-2-20-2-19-5-38-7-57-1-10-3-12-12-12-19 0-37 0-56 0-2 0-5 0-7 0-5 0-5-1-6-6 0-2 0-4 0-6 0-34 0-68 0-101z"/>
<glyph glyph-name="filter" unicode="&#57370;" d="M282 353c0-38 0-77 0-114 0-3 0-8 0-11-1-9 2-15 11-19 10-5 18-12 24-22 24-33 16-79-20-101-14-9-15-9-15-28 0-8 0-16 0-24 0-6-1-11-3-18-5-9-13-14-22-14-10 0-19 6-23 16-1 6-2 11-2 16 0 11 0 21 0 33 0 7-2 12-8 15-2 1-5 3-7 5-38 27-41 83-5 113 2 2 4 4 7 5 13 5 14 15 14 28 0 79 0 159 0 238 0 7 0 14 1 21 3 11 12 18 23 18 10 0 18-5 23-15 3-8 3-15 3-23-1-39-1-79-1-119z m159-95c0 18-1 21 16 30 2 1 4 3 5 4 34 27 34 82 0 109-3 2-6 6-10 8-9 4-12 10-12 19 0 16 0 33 0 48 0 5 0 10-1 16-2 11-11 18-22 18-10 0-20-6-23-17-2-7-2-13-2-19 0-12-1-25 0-38 1-13-2-24-16-28-44-29-44-93 1-121 3-2 6-3 9-5 4-2 5-7 6-11 0-5 0-9 0-14 0-25 0-48 0-73 0-46 0-92 0-139 0-8 0-16 2-25 3-12 12-19 24-18 11 0 20 7 22 21 1 6 1 11 1 17 0 36 0 72 0 107 0 36 0 74 0 111z m-321 143c0 25 0 49 0 73 0 5 0 9 0 14-1 13-9 21-21 22-13 1-23-7-25-20-1-5-1-11-1-17 0-49 0-98 0-147 0-19 0-19-16-28-43-28-44-89-2-119 2-2 5-3 7-5 9-4 11-10 11-18 0-5 0-10 0-15 0-36 0-71 0-107 0-6 0-12 2-19 4-10 13-15 23-14 11 1 19 8 21 18 1 6 1 11 1 16 0 38 0 77 0 115 0 19 1 18 15 27 35 22 42 68 23 99-7 11-16 20-27 25-9 4-11 10-11 20 0 26 0 54 0 80z"/>
<glyph glyph-name="gplus" unicode="&#57371;" d="M273 470c1-5 5-8 8-12 14-20 23-40 23-64 1-22-5-43-18-61-7-11-18-21-28-30-5-4-10-9-15-14-13-16-13-30 3-44 6-6 13-13 20-18 9-8 19-15 27-24 19-19 30-41 31-67 1-20-6-40-16-57-14-24-34-41-58-51-51-24-105-27-159-9-18 7-35 17-47 33-24 33-21 77 7 109 21 22 46 35 75 42 17 4 34 7 51 8 2 0 4 0 6 1 3 1 4 3 3 6-1 2-3 5-4 7-7 13-9 26-7 40 1 8 1 9-8 10-9 1-19 3-28 5-46 8-76 43-80 89-2 19-1 38 6 55 11 33 34 54 64 68 21 9 43 13 66 14 44 1 89 0 133 0 3 0 8 1 10-3 1-4-4-6-6-8-6-6-14-10-20-14-9-6-19-9-30-9-2 0-6 0-9-2z m-186-354c0-25 9-44 30-57 41-24 83-27 127-10 12 5 22 13 28 26 13 21 10 49-7 68-12 16-28 28-45 40-9 7-20 8-33 6-10-2-20-4-30-6-12-2-23-5-34-10-24-11-36-31-36-57z m159 248c0 9-1 18-2 26-5 28-17 51-38 71-25 23-77 14-85-26-3-17-4-35-1-52 5-27 15-51 35-72 14-14 30-19 51-13 20 6 34 18 39 40 0 8 1 16 1 26z m146-36c0-9 0-16 0-24 0-8-1-8-8-9-11 0-23 0-34 0-17 0-17 0-17-17 0-20 0-19 18-19 11 0 23 0 34 0 6 0 7-1 8-8 0-2 0-4 0-6 0-13 0-25 0-36 0-4 0-9 4-12 7-4 16-4 24-1 6 2 6 9 6 14 0 12 0 24 0 36 0 11 1 12 11 12 2 0 4 0 6 0 11 0 21 0 30 0 9 0 10 1 10 10 0 5 0 10 0 15 0 9-1 10-10 10-12 0-25 0-38 0-9 0-9 1-9 10 0 13 0 27 0 40 0 12-5 16-17 15-2 0-6 0-8-1-7-1-8-3-9-10-1-4-1-11-1-19z"/>
<glyph glyph-name="heart" unicode="&#57372;" d="M256 399c-9 36-57 58-93 58-72 0-130-56-130-131 0-139 132-176 204-260 1-1 2-2 3-3 9-9 23-9 33 0 0 1 1 2 2 3 72 84 204 120 204 260 0 75-58 131-130 131-36 0-84-22-93-58z m99-26c-9 1-15 9-15 18 0 10 8 19 18 19 15 0 33-11 48-25 16-16 27-36 27-49 0-11-9-19-19-19-9 0-17 7-18 15-5 19-21 36-41 41z"/>
<glyph glyph-name="mail" unicode="&#3598;" d="M257 420c76 0 152 0 227 0 4 0 9 0 13-1 5-1 6-4 2-7-2-2-4-4-6-6-30-26-60-53-90-78-25-23-50-44-75-67-22-18-43-38-65-56-1-1-2-2-3-3-3-2-5-3-8 0-7 6-15 12-23 19-26 23-52 46-78 69-25 21-51 44-75 65-19 17-38 33-57 49-1 2-3 3-4 4-2 4-5 6-3 9 1 3 4 3 7 3 4 0 8 0 11 0 75 0 151 0 227 0z m203-328c9 0 18 0 28 0 4 0 7 0 10 1 3 1 4 4 2 6-3 3-7 7-11 11-19 16-38 33-57 50-28 24-55 49-84 72-9 9-9 9-18 0-19-16-38-32-57-50-3-3-6-5-9-8-4-3-9-3-13-1-2 1-3 2-5 4-17 14-33 29-50 43-7 5-12 10-18 16-3 3-5 3-8 0-1-2-2-2-2-3-12-11-25-21-37-32-19-17-38-34-57-50-19-17-37-32-56-49-2-1-3-3-4-4-2-2-1-5 1-6 3-1 9 0 13 0 76 0 152 0 229 0 68 0 135 0 203 0z m-454 156c0-42 0-84 0-127 0-3-1-7 2-8 3-1 5 2 7 4 20 16 38 33 57 49 28 24 57 50 86 75 2 2 4 4 6 6 1 1 1 3 0 5-1 2-3 3-4 4-8 7-17 14-25 22-21 18-43 36-64 55-18 15-36 31-54 45-2 2-4 3-6 4-1 1-4 0-4-2 0-3-1-7-1-10 0-41 0-81 0-122z m500 121c0 3 0 7 0 10 0 3-3 4-5 2-5-4-9-8-15-12-22-20-44-39-66-60-16-13-31-26-45-40-6-5-13-11-19-16-3-2-3-4 0-7 4-4 8-7 12-12 26-24 54-48 81-72 16-15 31-29 48-44 2-1 3-3 5-4 3-2 5-1 5 3 0 3 0 6 0 9 0 40 0 80 0 121-1 41-1 81-1 122z"/>
<glyph glyph-name="menu" unicode="&#57375;" d="M256 17c-63 0-128 0-191 0-11 0-20 0-30 3-17 5-28 15-32 32-4 17 0 32 13 44 7 5 14 9 22 9 6 0 12 0 19 0 132 0 265 0 397 0 5 0 10 0 15 0 19 0 39-18 40-37 1-23-11-41-33-48-8-2-17-3-25-2-48 0-94 0-141 0-17-1-36-1-54-1z m-197 478c-6 0-11 0-17 0-13-2-25-8-33-20-13-20-8-57 26-66 8-2 16-2 23-2 90 0 181 0 270 0 42 0 84 0 126 0 7 0 15 0 22 2 21 6 34 23 33 45-1 20-17 38-39 40-6 1-11 0-17 0-66 0-131 0-197 0-66 1-131 1-197 1z m394-282c6 0 11 0 17 0 14 1 27 8 34 21 14 25 3 55-24 64-8 3-17 3-25 3-132 0-266 0-398 0-3 0-7 0-10 0-5-1-10-1-15-3-20-6-31-26-29-47 2-20 17-35 38-37 6-1 11 0 17 0 67 0 132 0 199 0 65-1 130-1 196-1z"/>
<glyph glyph-name="no" unicode="&#57376;" d="M152 256c0 1-1 2-1 3-3 2-5 5-8 7-43 43-87 87-130 130-2 2-5 4-7 7-3 4-3 6 0 8 2 2 4 4 6 6 29 27 57 55 84 83 1 2 3 3 5 5 4 3 5 3 10 0 2-3 4-5 6-7 43-43 86-86 129-129 11-12 10-12 20 0 43 43 86 86 128 128 2 2 5 5 8 7 4 2 6 2 9 0 2-2 4-3 5-5 28-29 56-57 85-85 8-8 8-8 0-17-44-44-87-87-131-131-2-2-5-5-8-8-2-3-2-5 0-7 3-2 5-5 8-7 43-43 87-87 130-130 10-11 10-10 0-20-28-27-56-55-83-83-9-9-9-9-19 0-44 44-87 87-131 131-1 1-2 3-4 4-7 8-7 8-13 0-44-44-88-88-131-131-2-2-5-5-8-7-5-4-7-3-11 0-1 1-3 2-4 4-27 28-56 57-84 84-9 9-9 9 0 19 44 44 87 87 131 131 2 2 5 5 8 8 0 0 1 1 1 2z"/>
<glyph glyph-name="oepn-left" unicode="&#57377;" d="M93 255c1-1 1-3 3-5 7-7 14-16 21-23 43-43 85-86 128-130 23-24 47-49 70-72 3-3 8-8 11-11 4-3 7-4 11 0 3 2 5 5 8 8 21 21 42 41 63 63 3 3 6 6 8 9 3 4 3 7 0 11-3 5-7 9-12 13-32 34-66 66-99 100-9 9-18 20-26 29-8 8-8 10 1 19 12 13 23 26 35 38 30 31 61 62 91 92 16 17 16 17 0 33-21 21-40 41-61 61-2 3-5 6-7 8-5 5-8 5-14 0-10-9-18-18-27-27-13-14-27-29-41-43-37-39-75-78-113-117-15-15-29-30-44-46-3-3-5-5-6-10z"/>
<glyph glyph-name="open-down" unicode="&#57378;" d="M410 429c-1 0-3-1-4-2-5-3-9-7-13-11-39-40-79-80-118-120-4-4-7-8-11-11-6-5-9-5-15 0-4 4-8 7-11 11-39 40-79 80-118 120-18 17-18 17-34 0-21-23-44-45-66-67-3-3-6-6-8-9-3-4-3-7 0-11 2-2 4-4 6-6 33-34 66-68 99-102 30-32 61-62 93-94 11-11 22-24 34-35 11-11 14-11 26 0 13 12 24 25 35 37 51 52 104 105 156 158 12 12 24 25 36 38 8 8 8 10-1 19-14 14-27 28-41 41-13 12-25 25-37 37-1 3-4 6-8 7z"/>
<glyph glyph-name="open-right" unicode="&#57379;" d="M419 255c-1-1-1-3-3-5-7-7-14-16-21-23-43-43-85-86-128-130-23-24-47-49-70-72-3-3-8-8-11-11-4-3-7-4-11 0-3 2-5 5-8 8-21 21-42 41-63 63-3 3-6 6-8 9-3 4-3 7 0 11 3 5 7 9 12 13 32 34 66 66 99 100 9 9 18 20 26 29 8 8 8 10-1 19-12 13-23 26-35 38-30 31-61 62-91 92-16 17-16 17 0 33 21 21 40 41 61 61 2 3 5 6 7 8 5 5 8 5 14 0 10-9 18-18 27-27 13-14 27-29 41-43 38-39 76-77 115-116 15-15 29-30 44-46 1-4 3-6 4-11z"/>
<glyph glyph-name="open-up" unicode="&#57380;" d="M410 83c-1 0-3 1-4 2-5 3-9 7-13 11-39 40-79 80-118 120-4 4-7 8-11 11-6 5-9 5-15 0-4-4-8-7-11-11-39-40-79-80-118-120-17-16-16-16-32 1-21 23-44 45-65 67-4 3-7 6-9 9-3 4-3 7 0 11 2 2 4 4 6 6 33 34 66 68 99 102 31 32 61 62 93 94 11 11 22 24 34 35 11 11 14 11 26 0 13-12 24-25 35-37 49-53 102-106 154-159 12-12 24-25 36-38 8-8 8-10-1-19-14-14-27-28-41-41-13-12-25-25-37-37-1-3-4-6-8-7z"/>
<glyph glyph-name="phone" unicode="&#57381;" d="M401 4c-96 0-196 44-274 122l-2 2c-80 81-123 182-121 281l0 7 4 6c7 9 14 16 22 23 26 27 57 47 92 61 4 2 9 2 14 2 11 0 38-6 45-25 13-32 27-75 38-116 3-12 0-39-16-50l-39-24c0 0 0-6 5-13 15-21 32-41 51-61 20-18 39-36 60-51 4-3 8-4 12-4l13 18 12 20c11 16 37 17 40 17 3 0 7 0 9-1 50-11 80-20 118-39 18-8 28-39 21-58-13-35-34-66-60-92-7-7-15-15-23-22l-6-4z m-354 396c0-84 41-174 110-242l2-2c68-69 156-109 241-109 6 4 11 8 15 13 21 22 39 49 50 77 0 0-1 3-2 5-34 16-62 24-107 34-1 0-3-1-5-1l-21-35c-14-21-49-25-76-6-22 17-44 35-65 55-20 22-39 43-55 66-10 14-15 32-12 47 2 12 9 22 18 28l35 21c1 2 1 5 1 6-9 36-23 75-34 106-2 1-4 1-6 1-27-10-54-27-76-49-4-4-9-9-13-15z"/>
<glyph glyph-name="pin" unicode="&#57382;" d="M226 186c-3-4-4-8-4-11-6-22-11-45-18-67-6-18-15-34-24-51-10-15-19-31-28-47-2-3-4-6-7-7-3 2-2 5-3 8-1 16-2 31-3 46-1 20 2 39 5 58 6 30 14 60 21 91 5 19 9 39 14 57 3 12 3 25-1 38-7 23-5 45 5 67 7 16 20 27 37 32 24 7 45-7 49-29 2-10 2-20-1-29-5-17-10-36-14-53-3-10-6-21-8-31-5-27 13-49 40-50 25-1 45 11 59 32 16 22 26 49 30 76 3 20 3 40 0 60-6 36-27 61-64 74-28 9-58 11-89 5-52-12-90-53-99-106-2-10-2-21-2-32 0-12 4-23 11-33 1-2 3-4 4-6 7-11 9-21 5-33-1-4-2-7-3-12-3-8-8-11-17-8-19 7-33 21-42 38-8 16-11 31-14 48-8 50 8 93 41 131 24 26 51 44 83 57 31 11 62 13 94 10 23-2 47-7 68-16 46-20 76-53 89-100 5-18 9-37 9-55 1-46-15-88-43-125-9-10-17-20-27-29-21-16-45-25-72-27-13-1-26-1-40 3-13 3-24 10-35 19-1 1-3 4-6 7z"/>
<glyph glyph-name="play" unicode="&#57383;" d="M257 509c133 2 252-110 252-253 1-136-110-253-253-253-143 0-254 118-254 254 1 143 121 254 255 252z m-1-48c-111 1-205-88-205-205 0-112 87-205 205-205 118 0 205 93 205 205 0 118-94 206-205 205z m-79-205c0 28 0 55 0 83 0 4 0 9 1 13 2 15 17 22 30 17 4-1 8-4 11-7 41-23 81-47 122-70 8-4 16-9 24-14 3-3 6-5 9-8 8-9 8-22-1-30-3-3-7-6-12-8-48-27-97-56-145-84-2-1-5-3-8-4-13-6-29 3-31 17-1 4-1 8-1 13 1 28 1 54 1 82z m45 0c0-9 0-19 0-29 0-5 0-10 0-16 0-4 3-6 7-4 1 0 2 1 2 1 25 14 49 28 73 42 1 1 2 2 3 3 2 2 1 4 0 5-2 2-4 3-6 4-18 11-38 22-56 33-5 3-11 6-16 8-5 2-8 1-8-4 1-13 1-29 1-43z"/>
<glyph glyph-name="read-more" unicode="&#57384;" d="M255 509c129 4 254-103 255-252 0-144-116-254-252-255-131-1-254 102-255 252-1 161 130 258 252 255z m5-252c-1-2-1-4-2-5-3-4-6-7-9-10-19-19-36-36-54-55-5-4-8-7-12-11-3-3-3-7 0-11 13-13 26-26 38-38 3-3 7-3 11 0 2 1 4 3 5 4 38 39 77 78 116 116 1 1 2 2 3 3 5 6 6 9 0 15-8 8-17 17-26 25-29 28-58 56-86 85-4 4-7 7-12 11-4 4-8 4-12 0-12-11-24-24-36-35-5-6-5-9 1-15 3-3 6-7 11-10 17-18 33-34 51-52 4-4 7-7 11-11 1-2 1-4 2-6z"/>
<glyph glyph-name="search" unicode="&#57385;" d="M2 305c0 95 70 174 154 198 107 28 222-28 257-138 17-57 11-111-19-162-13-23-13-22 5-40 30-29 60-59 89-87 7-6 13-13 17-19 9-14 8-30-2-42-10-12-29-16-43-9-9 4-17 11-24 19-27 27-55 54-82 81-3 4-6 7-9 10-17 17-17 16-37 6-30-16-63-24-98-23-99 2-188 72-205 177-3 10-3 19-3 29z"/>
<glyph glyph-name="shop" unicode="&#57386;" d="M252 497c54 0 108-1 163 0 17 0 27-7 35-23 16-41 34-81 53-121 5-12 7-23 4-36-6-24-18-45-40-58-2-1-4-2-6-4-3-2-5-5-5-9 0-4 0-9 0-14 0-60 0-119 0-180 0-6 0-12-1-17-2-10-9-18-20-19-4-1-9-1-13-1-110 0-220 0-330 0-4 0-7 0-11 1-13 2-21 10-22 23 0 4 0 8 0 12 0 60 0 119 0 177 0 3 0 6 0 10 0 15 0 13-12 21-25 17-40 41-41 73 0 6 1 12 3 17 16 42 31 84 47 127 1 2 2 4 2 6 3 10 11 15 21 15 4 0 8 0 12 0 53 0 108 0 161 0z m1-87c-53 0-106 0-159 0-4 0-7 0-11 0-5 0-8-2-10-8-8-21-16-43-24-64-3-7-2-14 1-22 17-34 56-32 73-8 1 2 2 4 4 5 10 14 25 14 35 0 2-2 4-5 6-8 4-5 9-9 14-12 16-7 34-5 48 9 3 4 7 8 10 12 9 11 23 11 32 0 2-2 3-4 6-7 15-23 49-25 67-1 2 3 4 6 6 9 9 10 22 10 31 0 2-3 4-6 6-9 3-4 7-8 11-11 23-13 51-4 61 20 3 9 4 16 0 24-8 17-17 36-24 54-6 18-5 17-22 17-54 0-108 0-161 0z m4-351c29 0 57 0 87 0 13 0 14 1 14 15 0 31 0 64 0 96 0 14-1 15-15 15-56 0-114 0-170 0-15 0-16-1-16-16 0-31 0-63 0-93 0-2 0-4 0-7 1-8 2-9 9-10 3 0 6 0 9 0 27 0 54 0 82 0z m-1 149c34 0 67 0 100 0 4 0 8 0 12 0 7-1 11-3 12-10 1-5 1-11 1-16 0-34 0-67 0-101 0-4 0-8 0-12 1-8 2-9 9-10 20 0 21-1 21 19 0 50 0 100 0 151 0 3 0 5 0 9 0 6-2 9-9 11-10 3-19 6-27 12-6 5-11 6-17 0-3-3-7-5-11-7-12-6-25-10-40-8-15 1-29 6-42 15-6 5-11 6-16 0-2-2-5-4-8-5-25-13-50-14-74-2-3 2-6 3-9 5-12 9-12 7-23 0-6-4-12-7-18-9-16-5-16-5-16-21 0-51 0-101 0-152 0-3 0-6 0-9 0-6 2-8 9-8 2 0 4 0 7 0 16 0 16 0 16 18 0 36 0 73 0 108 0 4 0 9 0 13 1 6 4 10 10 10 4 0 9 0 13 0 32-1 66-1 100-1z m-5 225c31 0 61 0 92 0 19 0 39 0 57 0 4 0 8 0 12 0 5 0 6 3 4 8-1 2-1 3-2 5-2 6-5 8-11 8-4 0-7 0-11 0-94 0-187 0-281 0-5 0-8 0-12 0-5 0-8-2-10-8-5-12-4-13 9-13 52 0 102 0 153 0z"/>
<glyph glyph-name="slick-next" unicode="&#57387;" d="M192 496l224-240-224-240-64 64 160 176-160 176z"/>
<glyph glyph-name="slick-prev" unicode="&#57388;" d="M320 496l64-64-160-176 160-176-64-64-224 240z"/>
<glyph glyph-name="twitter" unicode="&#57389;" d="M512 410c-19-8-39-14-60-16 21 13 38 34 46 58-20-12-43-21-67-25-19 20-46 33-77 33-58 0-105-47-105-105 0-9 1-17 3-24-87 4-165 46-216 109-9-15-15-33-15-52 0-37 19-69 47-88-17 1-33 6-47 13 0 0 0 0 0-1 0-51 36-93 84-103-9-2-18-4-28-4-7 0-13 1-20 2 14-41 53-72 99-73-36-28-82-45-131-45-8 0-17 1-25 2 47-30 102-47 161-47 193 0 299 160 299 299 0 4 0 9 0 13 20 15 38 33 52 54z"/>
<glyph glyph-name="update" unicode="&#57390;" d="M375 205c0-6 0-12 0-19-1-17-10-27-28-29-6-1-12 0-18 0-4 0-7 0-10-5-2-5-1-8 3-11 4-5 9-9 13-14 10-11 11-27 0-39-9-10-20-20-30-30-11-10-26-9-38 1-5 4-9 10-14 15-3 3-5 4-9 2-4-2-6-4-6-9 0-7 0-13 0-19-1-18-13-30-31-30-12 0-24 0-36 0-18 0-30 12-30 30 0 6 0 12 0 19 0 4-1 7-5 8-4 2-7 1-10-2-4-4-9-10-13-14-13-11-29-11-41 1-10 9-18 18-26 27-12 13-12 29 0 42 4 4 8 8 12 13 3 1 5 3 3 6-2 5-3 8-8 8-5 0-10 0-15 0-8 0-16 2-24 8-6 5-9 12-9 20 0 14 0 27 0 40 1 18 11 28 29 29 6 0 12 0 18 0 3 0 6 1 7 4 1 4 2 7-1 10-4 5-9 9-13 15-11 12-12 28 0 41 9 9 18 18 28 27 11 11 27 11 39 0 5-4 9-9 14-14 3-3 5-4 9-2 3 2 6 3 6 8 0 6 0 12 0 18 1 20 13 31 32 31 11 0 23 0 33 0 19 0 31-11 32-32 0-5 0-11 0-16 0-4 2-7 6-8 4-2 7-1 10 2 4 4 8 8 13 12 14 12 29 12 41 0 9-9 18-17 27-26 12-13 12-29 0-41-4-6-9-10-14-15-3-2-4-4-3-7 3-3 4-7 8-7 6 0 12 0 18 0 7 0 14-2 21-7 7-6 9-14 9-23 1-5 1-11 1-18z m-33 0c0 3 0 6 0 8 0 4-2 6-6 6-4 0-8 0-12 0-16 1-27 7-33 23-1 3-3 6-4 9-6 15-3 28 8 40 3 3 5 6 8 8 3 3 3 5 0 8-4 4-8 8-12 14-3 3-5 3-8 0-3-4-7-8-11-11-10-9-22-11-34-7-5 1-10 3-14 5-13 6-19 17-20 31 0 5 0 10 0 15 0 3-1 5-5 5-6 0-13 0-19 0-4 0-5-2-5-5 0-5 0-9 0-14 0-14-7-25-19-31-4-2-9-4-14-5-13-5-25-3-36 7-3 3-7 6-10 11-2 2-4 2-7 0-5-6-9-10-14-15-2-2-2-4 0-7 3-3 7-7 10-10 9-11 12-23 7-37-1-3-2-6-3-9-6-17-18-25-36-25-3 0-7 0-10 0-4 0-6-2-6-6 0-5 0-11 0-16 0-6 1-6 6-7 4 0 8 0 12 0 16-1 26-8 32-22 1-3 2-6 4-9 7-16 3-28-7-40-3-3-6-6-9-9-2-2-2-5 0-7 5-5 9-9 14-14 3-3 5-2 7 0 3 3 6 7 10 10 7 6 15 10 24 10 9 0 16-5 24-8 13-6 20-16 21-30 0-5 0-10 0-15 0-5 1-6 6-6 5 0 12 0 17 0 5 0 6 1 6 6 0 4 0 10 0 14 0 14 8 25 21 31 4 2 8 3 12 5 13 6 25 4 35-7 4-3 8-7 11-10 2-2 4-2 7 0 4 4 9 9 13 13 3 3 3 6 0 8-4 4-8 8-12 13-5 6-8 13-7 20 1 15 6 29 17 39 7 7 17 8 27 8 15 0 13 0 14 15z m88 215c12-12 25-25 36-37 3-3 5-6 8-8 8-5 18-4 25 2 7 6 8 16 4 25-2 4-4 6-6 9-25 24-50 50-74 74-12 13-23 13-35 0 0 0-1-1-1-1-25-24-49-50-74-74-2-2-3-3-4-6-8-12-2-27 13-30 8-2 14 1 19 6 12 13 26 26 38 39 2 2 3 4 6 4 1-3 1-6 1-9 0-64 0-126 0-190 0-4 0-8 1-12 3-9 10-15 20-15 9 0 16 6 19 15 1 4 1 9 1 13 0 63 0 125 0 188 0 3-1 6 1 10 1-2 2-2 2-3z m-241-145c36-1 70-27 70-70 0-41-32-71-70-71-36 0-69 29-69 71 1 41 33 69 69 70z m0-106c20-1 37 14 37 36 0 19-13 37-36 37-20 1-36-17-36-37 1-24 19-37 35-36z"/>
<glyph glyph-name="user" unicode="&#57391;" d="M255 8c-72 0-143 0-215 0-6 0-13 0-20 0-7 1-11 4-11 11-1 8-1 15 0 22 7 56 36 97 85 125 9 5 19 9 28 13 6 3 7 6 5 12-1 4-3 8-4 11-13 30-23 62-28 95-6 38-2 74 14 109 21 49 58 83 112 94 44 8 87 4 125-23 43-30 66-70 72-122 6-50-5-98-25-144-12-30-15-26 16-39 31-14 56-37 74-67 14-21 20-46 23-70 0-4 0-7 0-11-1-12-4-15-16-16-6 0-13 0-19 0-74 0-145 0-216 0z"/>
<glyph glyph-name="vimeo" unicode="&#57392;" d="M32 306l18-24c0 0 38 29 50 15 12-15 60-192 76-225 13-29 52-66 93-39 42 27 181 145 206 285 25 140-167 111-188-11 51 30 78-13 52-61-26-49-49-80-62-80-12 0-22 32-36 89-15 59-14 164-75 152-58-11-134-101-134-101z"/>
<glyph glyph-name="vk" unicode="&#57393;" d="M273 102c17 0 17 25 17 35 0 17 17 34 34 34 17 0 47-30 69-52 17-17 17-17 34-17 17 0 51 0 51 0 0 0 34 2 34 35 0 10-12 28-51 68-34 34-52 16 0 85 31 42 54 80 50 91-4 10-91 27-101 12-35-52-41-64-52-86-17-34-18-51-34-51-15 0-17 33-17 51 0 57 8 97-17 103 0 0-34 0-51 0-28 0-51-17-51-17 0 0-21-17-17-18 5 0 34 8 34-17 0-17 0-34 0-34 0 0 0-68-17-68-17 0-51 68-86 119-13 21-17 18-34 18-18 0-34-1-51-1-17 0-19-11-17-17 34-85 59-138 124-206 59-62 99-65 132-67 9 0 0 0 17 0z"/>
<glyph glyph-name="yes" unicode="&#57394;" d="M68 321c1-2 3-2 4-3 5-5 10-9 15-14 27-26 53-53 81-79 6-6 13-12 19-18 6-5 8-5 14 0 3 2 5 5 8 8 23 24 48 47 72 71 37 37 76 74 114 111 14 14 27 26 40 39 2 2 4 4 6 6 2 2 4 2 8 0 1-1 3-2 4-3 18-17 35-36 54-53 5-5 5-7-1-13-31-30-62-61-92-90-35-35-71-70-106-104-33-31-64-63-97-94-3-3-6-6-10-9-6-5-7-5-14 0-6 6-13 11-19 17-26 26-51 50-77 76-26 27-54 52-81 79-11 10-11 10 0 21 17 16 33 32 49 47 1 1 3 3 6 5 0-2 1-2 3 0z"/>
<glyph glyph-name="youtube" unicode="&#57395;" d="M508 259c1-41-2-80-4-118-1-24-11-46-32-60-12-9-25-13-40-13-23-1-47-1-71-2-40-3-81-4-122-4-43 1-86 3-130 4-10 0-19 1-28 1-36 1-65 24-72 60-2 10-2 20-3 32-1 14-1 28-2 43-1 14-1 29-1 44 0 39 2 78 4 115 1 14 1 26 7 38 14 29 35 44 67 45 44 1 88 3 132 5 20 0 41 1 61 1 43-1 86-3 129-4 10 0 19-1 28-1 32-1 53-16 66-45 4-9 6-19 7-29 1-15 1-28 2-42 1-24 3-48 2-70z m-305-75c8 2 125 70 129 76-11 6-22 11-32 18-10 6-21 11-32 17-10 6-21 12-31 17-11 5-21 13-33 18-1-50-1-98-1-146z"/>
<glyph glyph-name="right-open-mini" unicode="&#57350;" d="M195 169c0 0 81 87 81 87 0 0-81 88-81 88-9 9-9 17 0 25 9 9 17 9 24 0 0 0 99-100 99-100 8-9 8-17 0-25 0 0-99-100-99-100-7-8-15-8-24 0-9 8-9 16 0 25"/>
<glyph glyph-name="right-open" unicode="&#57351;" d="M219 397c0 0 116-121 116-121 5-5 8-12 8-20 0-8-3-14-8-19 0 0-116-121-116-121-5-6-12-8-20-8-9 0-15 2-21 8-12 12-12 26 0 41 0 0 95 99 95 99 0 0-95 100-95 100-12 15-12 29 0 41 6 6 13 9 21 9 9 0 15-3 20-9"/>
<glyph glyph-name="right-open-big" unicode="&#57352;" d="M144 67c0 0 183 189 183 189 0 0-183 190-183 190-9 9-9 18 0 25 8 9 17 9 24 0 0 0 201-202 201-202 8-9 8-17 0-25 0 0-201-202-201-202-7-9-16-9-24 0-9 7-9 16 0 25"/>
<glyph glyph-name="up-open" unicode="&#57353;" d="M396 220c6-5 8-12 8-21 0-8-2-15-8-21-13-13-26-13-40 0 0 0-100 96-100 96 0 0-100-96-100-96-14-13-27-13-40 0-6 6-8 13-8 21 0 9 2 16 8 21 0 0 120 115 120 115 5 5 12 8 20 8 8 0 15-3 20-8 0 0 120-115 120-115"/>
<glyph glyph-name="up-open-big" unicode="&#57354;" d="M446 143c0 0-190 184-190 184 0 0-189-184-189-184-9-7-18-7-26 0-8 9-8 17 0 26 0 0 203 200 203 200 9 9 17 9 24 0 0 0 203-200 203-200 8-9 8-17 0-26-9-7-17-7-25 0"/>
<glyph glyph-name="up-open-mini" unicode="&#57355;" d="M169 195c-9-8-17-8-26 0-8 8-8 16 0 25 0 0 101 97 101 97 9 9 17 9 24 0 0 0 101-97 101-97 8-9 8-17 0-25-9-8-17-8-26 0 0 0-87 80-87 80 0 0-87-80-87-80"/>
<glyph glyph-name="down-open" unicode="&#57347;" d="M396 293c0 0-120-115-120-115-6-6-12-9-20-9-8 0-14 3-20 9 0 0-120 115-120 115-6 5-8 12-8 21 0 8 2 15 8 21 13 13 26 13 40 0 0 0 100-96 100-96 0 0 100 96 100 96 14 13 27 13 40 0 6-6 8-13 8-21 0-9-2-16-8-21"/>
<glyph glyph-name="down-open-big" unicode="&#57348;" d="M67 369c0 0 189-183 189-183 0 0 190 183 190 183 8 9 16 9 25 0 9-8 9-16 0-25 0 0-203-201-203-201-7-7-15-7-24 0 0 0-203 201-203 201-9 9-9 17 0 25 8 8 17 8 26 0"/>
<glyph glyph-name="down-open-mini" unicode="&#57349;" d="M344 317c8 9 16 9 25 0 9-7 9-15 0-24 0 0-101-98-101-98-7-8-15-8-24 0 0 0-101 98-101 98-9 9-9 17 0 24 9 9 17 9 26 0 0 0 87-79 87-79 0 0 88 79 88 79"/>
<glyph glyph-name="left-open" unicode="&#57344;" d="M293 397c4 6 11 9 20 9 8 0 15-3 21-9 13-12 13-26 0-41 0 0-96-100-96-100 0 0 96-99 96-99 13-15 13-29 0-41-6-6-13-8-21-8-8 0-15 2-20 8 0 0-116 121-116 121-6 5-8 11-8 19 0 8 2 15 8 20 70 74 109 114 116 121"/>
<glyph glyph-name="left-open-big" unicode="&#57345;" d="M368 67c9-9 9-18 0-25-8-9-17-9-24 0 0 0-201 202-201 202-8 8-8 16 0 25 0 0 201 202 201 202 7 9 16 9 24 0 9-7 9-16 0-25 0 0-183-190-183-190 0 0 183-189 183-189"/>
<glyph glyph-name="left-open-mini" unicode="&#57346;" d="M317 169c9-9 9-17 0-25-9-8-17-8-24 0 0 0-99 100-99 100-8 8-8 16 0 25 0 0 99 100 99 100 7 9 15 9 24 0 9-8 9-16 0-25 0 0-80-88-80-88 0 0 80-87 80-87"/>
<glyph glyph-name="home" unicode="&#57396;" d="M34 239l27 19 0-178c0-10 9-20 20-20l124 0c10 0 19 10 19 20l0 123 63 0 0-123c0-10 8-20 19-20l124 0c10 0 20 10 20 20l0 178 27-19c3-2 7-5 11-5 7 0 13 4 16 9 6 9 4 20-4 26l-233 168c-7 5-16 5-22 0l-235-168c-9-6-10-18-4-26 6-10 19-12 28-4z m222 158l157-111c0-1-1-2-1-4l0-183-85 0 0 123c0 10-9 20-20 20l-102 0c-10 0-20-10-20-20l0-123-85 0 0 183c0 1 0 2-1 4z"/>
<glyph glyph-name="mobile" unicode="&#57397;" d="M424 25l0 462c0 12-9 22-22 22l-293 0c-12 0-22-9-22-22l0-462c0-12 9-22 22-22l294 0c12 0 21 10 21 22z m-42 20l-252 0 0 422 253 0 0-422z m-231 95l210 0c7 0 11 5 11 11l0 266c0 6-5 10-11 10l-210 0c-7 0-11-5-11-10l0-266c0-6 5-11 11-11z m11 267l189 0 0-246-189 0z m119-314c0-13-12-24-25-24-13 0-25 11-25 24 0 13 12 25 25 25 13 1 25-10 25-25z"/>
<glyph glyph-name="address" unicode="&#57398;" d="M129 468l298 0c11 0 20 9 20 20 0 12-9 21-20 21l-298 0c-36 1-64-28-64-64 0-2 0-4 1-6 0-1-1-2-1-3l0-386c0-25 21-47 47-47l287 0c26 0 47 22 47 47l0 326c0 25-21 47-47 47-1 0-1 0-2 0-1 0-1 0-2 0l-266 0c-12 0-23 10-23 22 0 13 11 23 23 23z m0-86l267 0c1 0 1 0 2 0 1 0 1 0 2 0 3 0 7-3 7-6l0-327c0-3-3-6-7-6l-288 0c-3 0-7 3-7 6l0 337c9-3 16-4 24-4z m53-299l148 0c11 0 19 8 20 19l3 48c2 22-14 47-37 55-12 4-24 7-36 9 20 10 34 33 34 59 0 36-26 65-58 65-33 0-59-29-59-65 0-26 14-49 34-59-12-2-24-4-36-9-22-8-38-33-37-54l3-48c2-12 11-20 21-20z"/>
<glyph glyph-name="bike" unicode="&#57399;" d="M111 90c59 0 107 48 107 108 0 40-21 73-53 93l13 30 64-133c3-6 8-9 14-9l40 0c9-50 53-88 105-88 60 0 108 48 108 108 0 59-48 107-108 107-12 0-23-2-34-6l-30 62c-3 7-8 10-14 10l-122 0 9 19 28 0c9 0 16 7 16 17 0 9-7 16-16 16l-39 0c-6 0-13-4-16-9l-50-113c-7 2-14 2-22 2-60 0-108-48-108-107 0-59 48-107 108-107z m241 162l21-42-44 0c3 17 11 32 23 42z m49 19c41 0 74-32 74-73 0-41-33-75-74-75-33 0-62 23-71 54l68 0c6 0 12 3 15 8 3 5 3 12 1 17l-32 66c6 2 12 3 19 3z m-63 12c-23-18-39-43-42-73l-16 0 43 105z m-43 54l-41-100-48 100z m-184-66c3 0 5-1 8-1l-32-69c-4-8 0-19 8-22 2-1 4-1 7-1 7 0 13 4 16 9l33 73c20-13 34-36 34-62 0-41-32-74-73-74-41 0-74 33-74 74 0 41 32 73 73 73z m237 151c9 0 17-7 17-16 0-10-8-17-17-17l-47 0c-9 0-16 7-16 17 0 9 7 16 16 16z"/>
<glyph glyph-name="car" unicode="&#57400;" d="M31 142l14 0 0-53c0-21 17-39 39-39l11 0c22 0 39 18 39 39l0 53 245 0 0-53c0-21 17-39 39-39l11 0c22 0 39 18 39 39l0 53 13 0c17 0 29 14 29 29l0 82c0 16-13 29-29 29l-29 0-26 107c-10 43-44 73-83 73l-176 0c-37 0-70-29-80-71l-27-109-29 0c-17 0-29-14-29-29l0-82c0-16 12-29 29-29z m424 115c20 0 37-16 37-37 0-20-17-37-37-37-21 0-37 17-37 37 1 21 16 37 37 37z m-320 123c4 19 18 33 32 33l177 0c15 0 30-15 34-35l22-95-288 0z m-78-123c21 0 37-16 37-37 0-20-16-37-37-37-20 0-37 18-37 38 0 20 17 36 37 36z"/>
<glyph glyph-name="clock" unicode="&#57401;" d="M510 256c0 140-114 254-254 254-140 0-254-114-254-254 0-140 114-254 254-254 140 0 254 114 254 254z m-431-115l10 6c5 4 7 10 4 16-3 5-9 7-15 4l-10-6c-13 23-20 49-23 76 8 3 13 11 13 20 0 9-5 16-13 21 3 26 10 52 23 75l10-6c2-1 3-1 5-1 4 0 7 2 9 5 3 5 1 13-4 16l-10 6c16 24 37 46 62 62l6-10c2-3 7-5 10-5 2 0 4 0 5 1 5 3 7 9 4 15l-6 10c23 13 49 20 75 23 4-8 12-13 20-13 9 0 16 5 19 13 27-2 53-10 76-23l-6-10c-3-5-1-12 4-15 2-1 3-1 5-1 4 0 7 2 9 5l7 10c24-16 46-37 62-62l-10-6c-5-3-7-10-4-16 2-3 6-5 9-5 2 0 4 0 5 1l10 6c13-23 20-49 23-75-8-4-13-12-13-21 0-9 5-16 13-20-2-27-10-53-23-76l-10 6c-5 3-12 1-15-4-3-5-1-12 4-16l10-6c-16-24-37-46-62-62l-7 10c-3 5-10 7-15 4-5-3-7-9-4-15l6-10c-23-13-49-20-76-23-3 8-11 13-19 13-9 0-16-5-20-13-26 2-52 10-75 23l6 10c3 5 1 12-4 15-5 3-13 1-16-4l-6-10c-20 16-42 38-58 62z m96 34c-8 8-8 23 0 31l59 59 0 149c0 12 11 21 22 21 11 0 22-10 22-21l0-158c0-7-4-12-9-16 0 0-1-1-1-1l-63-64c-4-4-10-6-16-6-5-1-10 1-14 6z"/>
<glyph glyph-name="calendar" unicode="&#57402;" d="M114 481c-13 0-23-10-23-22l0-16-66 0c-13 0-23-10-23-22l0-368c0-12 10-22 23-22l462 0c13 0 23 10 23 22l0 368c0 12-10 22-23 22l-63 0 0 16c0 12-10 22-23 22-12 0-22-10-22-22l0-16-243 0 0 16c0 12-10 22-22 22z m-67-405l0 212 418 0 0-212z m331 322l0-15c0-12 10-23 22-23 13 0 23 11 23 23l0 15 41 0 0-88-417 0 0 88 44 0 0-15c0-12 10-23 23-23 12 0 22 11 22 23l0 15z m-292-155l44 0 0-44-44 0z m76 0l44 0 0-44-44 0z m76 0l44 0 0-44-44 0z m75 0l44 0 0-44-44 0z m76 0l44 0 0-44-44 0z m-303-71l44 0 0-44-44 0z m76 0l44 0 0-44-44 0z m76 0l44 0 0-44-44 0z m75 0l44 0 0-44-44 0z m76 0l44 0 0-44-44 0z"/>
<glyph glyph-name="file" unicode="&#57403;" d="M136 3l198 0c5 0 10 2 13 5l115 115c3 3 5 8 5 13l0 278c0 10-8 19-20 19l-311 0c-10 0-19-8-19-19l0-392c1-11 9-19 19-19z m207 55l0 69 69 0z m86 88l-95 0c-5 0-9-4-9-9l0-96-169 0 0 354 273 0z m-53 325l-293 0 0-384c0-10-8-19-20-19-11 0-19 8-19 19l0 384c1 21 17 38 39 38l293 0c10 0 19-8 19-20-1-10-9-18-19-18z"/>
<glyph glyph-name="chat" unicode="&#57404;" d="M53 116c2-10 9-16 19-17 5 0 10-1 15-1 39 0 75 12 103 32 31-55 103-86 177-73 1 0 2 0 4 1 20-13 45-20 70-20 14 0 27 2 40 5 8 2 15 10 16 18 0 10-5 18-15 20-10 3-20 8-27 15 43 35 64 86 57 134-7 46-40 85-88 105-4 1-7 1-11 1-19 77-103 136-203 136-116 1-209-74-209-166 0-58 38-111 97-141-9-11-21-21-35-28-8-4-12-12-10-21z m417 110c6-40-16-82-57-107-5-3-7-8-9-14-1-5 0-11 4-16 1-2 2-4 4-6-10 3-19 7-26 13-5 4-11 5-17 4-3-1-8-2-11-2-52-9-102 8-128 43 100 9 178 74 184 156 30-15 51-41 56-71z m-429 80c0 70 75 127 166 127 92 0 166-57 166-127 0-69-75-127-166-127-4 0-9 0-13 1-7 0-12-2-16-6-11-12-26-21-43-27 2 4 4 7 6 10 1 2 2 4 3 7l1 2c2 5 3 11 1 16-2 5-6 9-11 12-57 20-94 65-94 112z"/>
<glyph glyph-name="download" unicode="&#57405;" d="M472 193c-17-19-43-31-70-31l-49 0c-11 0-20 9-20 20 0 12 9 21 20 21l49 0c16 0 31 6 41 18 18 17 27 36 27 58 0 42-34 75-76 75-8 0-15-1-23-4-6-2-13-1-18 2-5 3-8 9-9 16-5 52-49 92-102 92-57 0-103-46-103-103 0-6 1-13 2-20 1-6 0-12-4-18-4-5-9-7-15-7l-24 0c-30 0-55-24-55-55 0-31 25-55 55-55l61 0c11 0 20-9 20-21 0-11-9-20-20-20l-61 0c-53 0-96 43-96 96 0 53 43 96 96 96 0 1 0 2 0 4 0 79 65 144 144 144 66 0 123-45 139-107 4 0 9 1 13 1 65 0 117-52 117-116 0-32-14-64-39-86z m-216 120c-11 0-20-9-20-20l0-222-86 62c-10 6-22 5-29-4-7-9-5-21 4-29l119-86c1-1 2-1 3-1 1 0 1-1 2-1 2-1 5-1 7-1 2 0 5 1 7 1 1 0 1 1 2 1 1 0 2 1 3 1l119 86c9 8 11 20 4 29-6 9-19 11-29 4l-86-62 0 222c0 11-9 20-20 20z"/>
<glyph glyph-name="upload" unicode="&#57406;" d="M98 135c-53 0-96 43-96 96 0 54 43 97 96 97 0 1 0 2 0 4 0 79 65 143 144 143 66 0 123-45 139-106 4 0 9 1 13 1 65 0 117-53 117-117 0-33-14-65-39-87-17-19-43-31-70-31l-49 0c-11 0-20 9-20 21 0 11 9 20 20 20l49 0c16 0 31 6 41 19 18 16 27 35 27 57 0 42-34 76-76 76-8 0-15-1-23-4-6-2-13-1-18 2-5 3-8 9-9 15-5 52-49 92-102 92-57 0-103-46-103-102 0-6 1-14 2-21 1-6 0-12-4-17-4-5-9-7-15-7l-24 0c-30 0-55-25-55-56 0-30 25-55 55-55l61 0c11 0 20-9 20-20 0-12-9-21-20-21l-61 0z m158-99c11 0 20 9 20 20l0 224 86-63c5-3 9-4 13-4 6 0 12 3 16 8 7 9 5 22-4 29l-119 86c-1 1-2 1-3 1-1 0-1 1-2 1-5 2-10 2-14 0-1 0-1-1-2-1-1 0-2-1-3-1l-119-86c-9-7-11-20-4-29 6-9 19-11 29-4l86 63 0-223c0-12 9-21 20-21z"/>
<glyph glyph-name="credit-card" unicode="&#57407;" d="M509 125l0 262c0 29-24 52-52 52l-402 0c-28 0-52-23-52-52l0-62c0-1-1-2-1-3 0-1 0-3 1-4l0-193c0-29 24-52 52-52l402 0c28 0 52 23 52 52z m-454 270l402 0c4 0 8-4 8-8l0-44-417 0 0 44c0 4 3 8 7 8z m-7-270l0 175 418 0 0-175c0-4-4-8-8-8l-403 0c-4 0-7 4-7 8z m43 107l51 0 0-44-51 0z"/>
<glyph glyph-name="pc" unicode="&#57408;" d="M489 134c12 0 22 9 22 22l0 297c0 11-9 21-22 21l-466 0c-12 0-22-9-22-21l0-297c0-12 9-22 22-22l158 0 0-54-3 0c-11 0-21-9-21-22 0-11 9-21 21-21l157 0c11 0 21 9 21 21 0 12-9 22-21 22l-3 0 0 54z m-445 297l425 0 0-255-425 0z m245-350l-66 0 0 54 66 0z"/>
<glyph glyph-name="laptop" unicode="&#57409;" d="M49 399l0-237c0-9 7-18 18-18l372 0c10 0 18 8 18 18l0 237c0 10-7 18-18 18l-372 0c-10 0-18-8-18-18z m35-16l339 0 0-204-339 0z m409-288l-474 0c-9 0-17 7-17 18 0 9 7 17 17 17l473 0c9 0 17-7 17-17 0-10-7-18-16-18z"/>
<glyph glyph-name="folder" unicode="&#57410;" d="M414 61c8 0 15 6 17 14l78 242c2 6 1 12-3 17-3 5-9 7-16 7l-378 0c-9 0-16-5-18-13l-55-174 0 260 129 0 0-32c0-10 8-18 18-18l213 0c11 0 19 8 19 18 0 10-8 18-19 18l-194 0 0 14c0 20-17 37-37 37l-129 0c-21 0-37-17-37-37l0-334c0-10 8-19 18-19 3 0 6 1 8 1 2 0 4-1 7-1z m-288 244l341 0-66-207-342 0z"/>
<glyph glyph-name="edit" unicode="&#57411;" d="M282 504c-6 0-11-2-15-6l-255-255c-4-4-6-10-6-16l7-196c0-11 10-20 20-20l196-7c0 0 0 0 1 0 6 0 11 2 15 6l255 255c4 4 6 9 6 15 0 5-2 10-6 14l-204 204c-4 3-9 6-14 6z m-15-413c-14 12-33 19-51 18l159 158 35-35z m-64 33c0 19-8 39-23 54-16 17-40 25-62 23l162 161 80-80z m-93 98c-1 16-8 31-18 43l142 143 31-31z m-57-171l-2 66c34-6 60-33 65-67z m169-5l-87 3c-4 46-40 82-85 88l-3 84 31 31c13-18 16-42 5-63-2-5-1-10 2-13 3-3 8-4 12-2 24 12 50 8 69-10 18-19 22-46 10-69-2-4-1-9 2-12 3-3 8-4 12-2 21 10 46 8 63-5z m202 202l-174 174 33 33 174-174z"/>
<glyph glyph-name="users" unicode="&#57412;" d="M180 214c3 2 4 3 3 7-1 2-2 4-2 6-7 18-12 35-15 53-3 20-1 41 7 59 12 27 32 46 63 52 24 4 48 2 68-12 24-17 36-39 40-68 3-27-3-54-13-80-7-16-8-14 8-21 17-8 31-21 41-37 7-12 10-26 12-39 0-2 0-4 0-6-1-6-2-8-8-8-3 0-7 0-10 0-41 0-80 0-119 0-40 0-79 0-119 0-3 0-7 0-10 0-4 1-6 2-6 6-1 4-1 8 0 12 4 31 19 53 47 69 3 2 8 5 13 7z m-25 12c1 0 1 1 2 1-6 15-11 32-13 48-4 26-1 50 10 72-4 4-8 8-13 11-15 12-33 13-51 10-22-4-38-19-46-39-6-15-8-29-5-45 2-14 6-27 11-39 0-1 1-3 2-4 1-2 0-4-2-5-4-3-7-4-11-6-21-11-32-28-35-51 0-3 0-6 0-9 0-3 2-4 5-5 2 0 5 0 8 0 30 0 59 0 88 0 6 26 23 46 50 61z m316 6c-12 6-11 5-6 17 8 19 12 39 10 59-2 22-12 38-30 50-15 12-33 13-51 10-15-3-27-12-36-23 4-10 8-20 9-32 3-27-1-55-14-86 19-10 34-24 46-43 4-6 7-12 10-19 28 0 58 0 89 0 2 0 5 0 8 0 5 0 6 2 6 6 0 2 0 3 0 5-1 10-4 21-9 29-9 13-19 22-32 27z"/>
<glyph glyph-name="tip" unicode="&#57413;" d="M270 174c4-5 8-10 8-17 0-7-3-14-8-18-5-4-10-6-16-6-6 0-12 2-17 6-6 4-8 11-8 18 0 7 2 12 8 17 5 5 10 7 17 7 6 0 11-2 16-7z m28 195c-12 6-26 8-41 8-16 0-32-3-44-10-12-8-23-16-29-26-6-10-10-20-10-31 0-5 2-9 6-13 4-4 9-6 16-6 10 0 17 6 20 18 4 12 8 21 14 27 7 6 15 9 26 9 10 0 18-3 25-9 6-6 9-13 9-22 0-4-1-8-3-12-2-4-5-7-8-10-4-3-9-7-16-13-8-8-14-13-18-18-4-5-8-11-12-17-3-6-4-15-4-24 0-7 2-12 7-16 4-4 8-5 14-5 10 0 17 5 19 16 1 5 2 9 3 11 1 2 1 4 2 6 1 2 4 5 6 8 2 3 5 5 9 9 13 12 22 20 27 25 6 6 10 12 14 18 4 7 5 15 5 23 0 12-3 23-9 32-7 7-16 15-28 22z m138-293c-48-48-112-75-180-75-68 0-132 27-180 75-48 48-75 112-75 180 0 68 27 132 75 180 48 48 112 75 180 75 68 0 132-27 180-75 100-99 100-261 0-360z m-30 330c-40 39-94 61-150 61-56 0-110-22-150-61-39-40-61-94-61-150 0-56 22-110 61-150 40-39 94-61 150-61 56 0 110 22 150 63 82 80 82 216 0 298z"/>
<glyph glyph-name="undo" unicode="&#57414;" d="M24 210l200 0c8 0 16 5 19 12 3 7 1 17-4 23l-60 59c27 21 60 32 94 32 86 0 157-70 157-156 0-40-15-78-43-107-7-8-7-20 0-28 4-4 9-7 15-7 5 0 10 1 13 4 60 46 95 116 95 191 0 134-109 241-241 241-67 0-133-30-178-80l-51 51c-7 7-16 9-25 6-7-4-12-11-12-19l0-201c0-12 9-21 21-21z"/>
<glyph glyph-name="redo" unicode="&#57415;" d="M488 210l-200 0c-8 0-16 5-19 12-3 7-1 17 4 23l60 59c-27 21-60 32-94 32-86 0-157-70-157-156 0-40 15-78 43-107 7-8 7-20 0-28-4-4-9-7-15-7-5 0-10 1-13 4-60 46-95 116-95 191 0 134 109 241 241 241 67 0 133-30 178-80l51 51c6 7 14 8 23 5 7-4 12-11 12-19l0-201c2-11-7-20-19-20z"/>
<glyph glyph-name="location" unicode="&#57373;" d="M256 5c-5 0-9 2-13 5-21 18-199 173-199 285 0 117 95 212 212 212 117 0 213-95 213-212 0-113-178-268-199-285-5-4-9-5-14-5z m0 461c-94 0-171-77-171-171 0-73 113-190 171-242 58 52 171 169 171 242 0 94-77 171-171 171z m0-275c-57 0-103 47-103 104 0 57 46 103 103 103 57 0 103-46 103-103 0-57-46-104-103-104z m0 166c-34 0-62-27-62-62 0-35 27-63 62-63 35 0 62 28 62 63 0 35-28 62-62 62z"/>
<glyph unicode="&#57416;" glyph-name="laz" d="M512 357c-1 6-4 11-9 14-3 3-84 52-96 58-2 2-5 3-8 3-2 0-5-1-7-2-1 0-88-55-101-63-11-5-23-8-35-8-11 0-21 2-31 6-14 6-105 65-105 65-2 1-5 2-7 2-3 0-6-1-8-2-10-6-75-46-95-58l-1-1c-5-3-8-8-9-14 0-1 0-2 0-3v-175c0-1 0-1 0-2 2-6 5-10 11-13 7-4 208-129 235-145 3-2 6-3 9-3h1c4 0 7 1 11 3 3 2 10 6 20 12 43 26 135 84 183 114 18 11 30 18 32 19 5 3 9 8 10 15v176c0 1 0 1 0 2zM168 171h-78v166h29v-139h49zM301 171h-27v16c-9-12-24-19-39-19-33 0-59 29-59 64s26 63 59 63c15 0 30-7 39-19v17h27zM422 171h-100v21l64 76h-63v25h98v-22l-64-76h65zM240 271c-22 0-36-17-36-39s14-39 36-39c21 0 36 17 36 39s-14 39-36 39z" />
<glyph glyph-name="yandex-zen" unicode="&#57417;" d="M305.408 174.643c-40.269-41.498-43.187-93.312-46.618-206.643 105.651 0 178.662 0.409 216.32 36.889 36.557 37.709 36.864 114.15 36.864 216.371-113.382-3.661-165.094-6.375-206.566-46.618zM0.025 221.286c0-102.247 0.358-178.662 36.941-216.345 37.657-36.582 110.618-36.941 216.32-36.941-3.661 113.408-6.4 165.145-46.643 206.643-41.523 40.243-93.261 43.161-206.618 46.643zM253.286 480c-105.523 0-178.662-0.358-216.32-36.915-36.608-37.683-36.941-114.099-36.941-216.32 113.357 3.661 165.095 6.4 206.592 46.618 40.269 41.497 43.161 93.261 46.669 206.617zM305.408 273.382c-40.294 41.498-43.187 93.261-46.643 206.618 105.625 0 178.663-0.358 216.294-36.941 36.557-37.657 36.889-114.099 36.889-216.32-113.357 3.661-165.069 6.4-206.541 46.643z" />
<glyph unicode="&#57417;" glyph-name="instagram" d="M511.755 284.376c-0.409 20.839-1.050 41.703-2.509 62.49-1.51 20.454-6.81 40.089-16.512 58.265-21.504 40.371-56.013 62.439-100.403 70.375-19.993 3.559-40.243 4.045-60.442 4.224-42.983 0.435-85.965 0.41-128.947 0.307-25.113-0.025-50.279-0.205-75.264-3.277-20.787-2.586-40.704-8.295-58.752-19.046-37.094-22.093-57.37-55.552-64.743-97.536-3.353-19.072-4.071-38.4-4.122-57.677-0.179-57.677 0.102-115.379 0.537-173.030 0.153-18.995 1.869-37.888 6.758-56.397 9.575-36.352 29.952-64.64 62.541-83.558 24.013-13.952 50.509-19.353 77.901-20.301 25.19-0.896 50.458-1.255 75.699-1.306 41.728-0.051 83.456 0.205 125.184 0.589 16.896 0.205 33.741 1.255 50.355 4.992 52.992 11.955 88.346 43.213 104.243 95.642 6.093 20.147 7.705 40.96 7.911 61.849 0.358 30.848 0.103 61.747 0.103 92.647 0.205 0 0.409 0 0.589 0-0.026 20.275 0.333 40.525-0.128 60.749zM465.522 136.254c-0.358-16.998-0.947-34.048-5.248-50.611-9.907-38.246-34.791-60.595-73.241-67.558-13.543-2.457-27.546-3.507-41.344-3.738-39.731-0.691-79.463-0.896-119.219-0.845-24.499 0-49.024 0.64-73.523 1.357-16.537 0.461-32.845 2.611-48.384 8.807-28.058 11.111-45.081 31.897-52.787 60.749-4.377 16.409-5.351 33.152-5.479 49.945-0.435 53.709-0.717 107.469-0.512 161.178 0.077 17.382 1.075 34.841 3.047 52.122 2.944 26.112 13.363 48.691 34.944 65.024 13.133 9.958 28.211 15.181 44.263 17.689 23.142 3.687 46.541 3.661 69.888 3.738 42.905 0.205 85.785 0.281 128.64-0.179 17.664-0.205 35.481-1.101 53.069-3.072 25.907-2.867 48.307-13.235 64.64-34.457 10.137-13.235 15.488-28.493 18.048-44.749 3.738-23.68 3.507-47.59 3.789-71.475 0.205-18.765 0.051-37.555 0.051-56.346 0.154 0 0.256 0 0.409 0-0.307-29.159-0.512-58.368-1.050-87.577zM255.832 355.416c-72.73-0.051-131.482-58.803-131.482-131.533-0.025-72.73 58.675-131.481 131.405-131.533 72.807-0.103 131.661 58.752 131.61 131.635 0 72.678-58.855 131.456-131.533 131.43zM254.936 138.149c-47.104 0.307-85.018 39.040-84.787 86.707 0.231 46.976 39.168 84.992 86.784 84.736 46.592-0.281 84.941-39.193 84.634-85.913-0.256-47.769-38.835-85.811-86.63-85.529zM392.459 391.154c-16.947 0-30.695-13.696-30.695-30.592-0.051-16.819 13.747-30.695 30.592-30.771 16.998-0.077 30.797 13.747 30.745 30.848-0.051 16.973-13.645 30.541-30.643 30.515z" />
</font>
</defs>
</svg>
