<?xml version="1.0" encoding="utf-8"?>
<svg version="1.1" xmlns:xlink="http://www.w3.org/1999/xlink" width="60px" height="60px" xmlns="http://www.w3.org/2000/svg">
  <g transform="matrix(1 0 0 1 -1166 -3054 )">
    <path d="M 43.75 40.23437500000001  C 44.427083333333336 40.23437500000001  45.013020833333336 39.98697916666666  45.5078125 39.4921875  L 49.4921875 35.5078125  C 49.98697916666667 35.01302083333333  50.234375 34.42708333333333  50.234375 33.75  C 50.234375 33.07291666666666  49.98697916666667 32.48697916666666  49.4921875 31.9921875  L 31.7578125 14.257812500000002  C 31.263020833333332 13.763020833333329  30.677083333333332 13.515624999999998  30 13.515624999999998  C 29.32291666666667 13.515624999999998  28.73697916666667 13.763020833333329  28.2421875 14.257812500000002  L 10.5078125 31.9921875  C 10.013020833333336 32.48697916666666  9.765625 33.07291666666666  9.765625 33.75  C 9.765625 34.42708333333333  10.013020833333336 35.01302083333333  10.5078125 35.5078125  L 14.4921875 39.4921875  C 14.98697916666667 39.98697916666666  15.57291666666667 40.23437500000001  16.25 40.23437500000001  C 16.927083333333336 40.23437500000001  17.513020833333336 39.98697916666666  18.0078125 39.4921875  L 30 27.500000000000004  L 41.9921875 39.4921875  C 42.48697916666667 39.98697916666666  43.07291666666667 40.23437500000001  43.75 40.23437500000001  Z M 55.9765625 14.94140625  C 58.65885416666666 19.53776041666666  60 24.557291666666657  60 30  C 60 35.442708333333336  58.65885416666666 40.46223958333333  55.9765625 45.05859375  C 53.29427083333334 49.654947916666664  49.654947916666664 53.294270833333336  45.05859375 55.9765625  C 40.46223958333334 58.65885416666667  35.442708333333336 60  30 60  C 24.557291666666668 60  19.537760416666668 58.65885416666667  14.94140625 55.9765625  C 10.345052083333334 53.294270833333336  6.705729166666668 49.654947916666664  4.0234375 45.05859375  C 1.341145833333333 40.46223958333333  0 35.442708333333336  0 30  C 0 24.557291666666657  1.341145833333333 19.53776041666666  4.0234375 14.94140625  C 6.705729166666668 10.345052083333332  10.345052083333334 6.705729166666661  14.94140625 4.023437499999998  C 19.537760416666668 1.3411458333333282  24.557291666666668 0  30 0  C 35.442708333333336 0  40.46223958333334 1.3411458333333282  45.05859375 4.023437499999998  C 49.654947916666664 6.705729166666661  53.29427083333334 10.345052083333332  55.9765625 14.94140625  Z " fill-rule="nonzero" fill="#c7c7c7" stroke="none" transform="matrix(1 0 0 1 1166 3054 )" />
  </g>
</svg>