<?xml version="1.0" encoding="utf-8"?>
<svg version="1.1" xmlns:xlink="http://www.w3.org/1999/xlink" width="26px" height="18px" xmlns="http://www.w3.org/2000/svg">
  <defs>
    <mask fill="white" id="clip3">
      <path d="M 17.197916666666668 10.534090909090908  C 17.288194444444446 10.431818181818183  17.333333333333332 10.329545454545455  17.333333333333332 10.227272727272727  C 17.333333333333332 10.107954545454545  17.292708333333334 10.009943181818183  17.211458333333333 9.933238636363635  C 17.130208333333332 9.856534090909092  17.026388888888892 9.818181818181817  16.900000000000002 9.818181818181817  L 13.866666666666667 9.818181818181817  L 13.866666666666667 5.3181818181818175  C 13.866666666666667 5.2073863636363615  13.823784722222223 5.111505681818182  13.738020833333335 5.030539772727272  C 13.652256944444447 4.949573863636362  13.550694444444447 4.909090909090908  13.433333333333335 4.909090909090908  L 10.833333333333334 4.909090909090908  C 10.715972222222224 4.909090909090908  10.614409722222224 4.949573863636362  10.528645833333334 5.030539772727272  C 10.442881944444444 5.111505681818182  10.4 5.2073863636363615  10.4 5.3181818181818175  L 10.4 9.818181818181817  L 7.366666666666666 9.818181818181817  C 7.249305555555556 9.818181818181817  7.147743055555556 9.858664772727272  7.061979166666666 9.939630681818183  C 6.976215277777778 10.02059659090909  6.933333333333334 10.116477272727273  6.933333333333334 10.227272727272727  C 6.933333333333334 10.346590909090907  6.973958333333334 10.444602272727273  7.055208333333334 10.521306818181817  L 11.821875 15.021306818181817  C 11.903125000000001 15.098011363636363  12.006944444444445 15.136363636363637  12.133333333333333 15.136363636363637  C 12.259722222222223 15.136363636363637  12.363541666666666 15.098011363636363  12.444791666666667 15.021306818181817  L 17.197916666666668 10.534090909090908  Z M 24.869270833333335 10.041903409090908  C 25.62309027777778 10.93252840909091  26.000000000000007 11.948863636363635  26 13.090909090909092  C 26.000000000000007 14.446022727272727  25.492187500000004 15.602982954545455  24.4765625 16.561789772727273  C 23.460937500000004 17.52059659090909  22.23541666666667 18  20.8 18  L 6.066666666666666 18  C 4.396527777777777 18  2.9678819444444446 17.439630681818183  1.780729166666667 16.318892045454547  C 0.5935763888888889 15.198153409090907  0 13.84943181818182  0 12.272727272727273  C 0 11.164772727272725  0.3159722222222222 10.142045454545455  0.9479166666666667 9.204545454545455  C 1.5798611111111112 8.267045454545451  2.428472222222222 7.5639204545454515  3.49375 7.095170454545454  C 3.475694444444444 6.839488636363637  3.466666666666667 6.656249999999999  3.466666666666667 6.545454545454546  C 3.466666666666667 4.738636363636362  4.14375 3.1960227272727284  5.497916666666667 1.917613636363637  C 6.852083333333334 0.6392045454545456  8.486111111111112 0  10.4 0  C 11.808333333333335 0  13.097048611111113 0.3707386363636369  14.266145833333333 1.1122159090909087  C 15.435243055555556 1.8536931818181825  16.28611111111111 2.8380681818181825  16.818749999999998 4.065340909090908  C 17.459722222222222 3.5369318181818166  18.209027777777777 3.2727272727272716  19.066666666666666 3.2727272727272716  C 20.023611111111112 3.2727272727272716  20.840625 3.592329545454546  21.517708333333335 4.231534090909092  C 22.194791666666667 4.870738636363637  22.533333333333335 5.642045454545453  22.533333333333335 6.545454545454546  C 22.533333333333335 7.193181818181817  22.34826388888889 7.781249999999999  21.978125000000002 8.309659090909092  C 23.151736111111113 8.573863636363637  24.11545138888889 9.151278409090907  24.869270833333335 10.041903409090908  Z " fill-rule="evenodd" />
    </mask>
  </defs>
  <g transform="matrix(1 0 0 1 -359 -5409 )">
    <path d="M 17.197916666666668 10.534090909090908  C 17.288194444444446 10.431818181818183  17.333333333333332 10.329545454545455  17.333333333333332 10.227272727272727  C 17.333333333333332 10.107954545454545  17.292708333333334 10.009943181818183  17.211458333333333 9.933238636363635  C 17.130208333333332 9.856534090909092  17.026388888888892 9.818181818181817  16.900000000000002 9.818181818181817  L 13.866666666666667 9.818181818181817  L 13.866666666666667 5.3181818181818175  C 13.866666666666667 5.2073863636363615  13.823784722222223 5.111505681818182  13.738020833333335 5.030539772727272  C 13.652256944444447 4.949573863636362  13.550694444444447 4.909090909090908  13.433333333333335 4.909090909090908  L 10.833333333333334 4.909090909090908  C 10.715972222222224 4.909090909090908  10.614409722222224 4.949573863636362  10.528645833333334 5.030539772727272  C 10.442881944444444 5.111505681818182  10.4 5.2073863636363615  10.4 5.3181818181818175  L 10.4 9.818181818181817  L 7.366666666666666 9.818181818181817  C 7.249305555555556 9.818181818181817  7.147743055555556 9.858664772727272  7.061979166666666 9.939630681818183  C 6.976215277777778 10.02059659090909  6.933333333333334 10.116477272727273  6.933333333333334 10.227272727272727  C 6.933333333333334 10.346590909090907  6.973958333333334 10.444602272727273  7.055208333333334 10.521306818181817  L 11.821875 15.021306818181817  C 11.903125000000001 15.098011363636363  12.006944444444445 15.136363636363637  12.133333333333333 15.136363636363637  C 12.259722222222223 15.136363636363637  12.363541666666666 15.098011363636363  12.444791666666667 15.021306818181817  L 17.197916666666668 10.534090909090908  Z M 24.869270833333335 10.041903409090908  C 25.62309027777778 10.93252840909091  26.000000000000007 11.948863636363635  26 13.090909090909092  C 26.000000000000007 14.446022727272727  25.492187500000004 15.602982954545455  24.4765625 16.561789772727273  C 23.460937500000004 17.52059659090909  22.23541666666667 18  20.8 18  L 6.066666666666666 18  C 4.396527777777777 18  2.9678819444444446 17.439630681818183  1.780729166666667 16.318892045454547  C 0.5935763888888889 15.198153409090907  0 13.84943181818182  0 12.272727272727273  C 0 11.164772727272725  0.3159722222222222 10.142045454545455  0.9479166666666667 9.204545454545455  C 1.5798611111111112 8.267045454545451  2.428472222222222 7.5639204545454515  3.49375 7.095170454545454  C 3.475694444444444 6.839488636363637  3.466666666666667 6.656249999999999  3.466666666666667 6.545454545454546  C 3.466666666666667 4.738636363636362  4.14375 3.1960227272727284  5.497916666666667 1.917613636363637  C 6.852083333333334 0.6392045454545456  8.486111111111112 0  10.4 0  C 11.808333333333335 0  13.097048611111113 0.3707386363636369  14.266145833333333 1.1122159090909087  C 15.435243055555556 1.8536931818181825  16.28611111111111 2.8380681818181825  16.818749999999998 4.065340909090908  C 17.459722222222222 3.5369318181818166  18.209027777777777 3.2727272727272716  19.066666666666666 3.2727272727272716  C 20.023611111111112 3.2727272727272716  20.840625 3.592329545454546  21.517708333333335 4.231534090909092  C 22.194791666666667 4.870738636363637  22.533333333333335 5.642045454545453  22.533333333333335 6.545454545454546  C 22.533333333333335 7.193181818181817  22.34826388888889 7.781249999999999  21.978125000000002 8.309659090909092  C 23.151736111111113 8.573863636363637  24.11545138888889 9.151278409090907  24.869270833333335 10.041903409090908  Z " fill-rule="nonzero" fill="#ffffff" stroke="none" transform="matrix(1 0 0 1 359 5409 )" />
    <path d="M 17.197916666666668 10.534090909090908  C 17.288194444444446 10.431818181818183  17.333333333333332 10.329545454545455  17.333333333333332 10.227272727272727  C 17.333333333333332 10.107954545454545  17.292708333333334 10.009943181818183  17.211458333333333 9.933238636363635  C 17.130208333333332 9.856534090909092  17.026388888888892 9.818181818181817  16.900000000000002 9.818181818181817  L 13.866666666666667 9.818181818181817  L 13.866666666666667 5.3181818181818175  C 13.866666666666667 5.2073863636363615  13.823784722222223 5.111505681818182  13.738020833333335 5.030539772727272  C 13.652256944444447 4.949573863636362  13.550694444444447 4.909090909090908  13.433333333333335 4.909090909090908  L 10.833333333333334 4.909090909090908  C 10.715972222222224 4.909090909090908  10.614409722222224 4.949573863636362  10.528645833333334 5.030539772727272  C 10.442881944444444 5.111505681818182  10.4 5.2073863636363615  10.4 5.3181818181818175  L 10.4 9.818181818181817  L 7.366666666666666 9.818181818181817  C 7.249305555555556 9.818181818181817  7.147743055555556 9.858664772727272  7.061979166666666 9.939630681818183  C 6.976215277777778 10.02059659090909  6.933333333333334 10.116477272727273  6.933333333333334 10.227272727272727  C 6.933333333333334 10.346590909090907  6.973958333333334 10.444602272727273  7.055208333333334 10.521306818181817  L 11.821875 15.021306818181817  C 11.903125000000001 15.098011363636363  12.006944444444445 15.136363636363637  12.133333333333333 15.136363636363637  C 12.259722222222223 15.136363636363637  12.363541666666666 15.098011363636363  12.444791666666667 15.021306818181817  L 17.197916666666668 10.534090909090908  Z " stroke-width="4" stroke="#00adef" fill="none" transform="matrix(1 0 0 1 359 5409 )" mask="url(#clip3)" />
    <path d="M 24.869270833333335 10.041903409090908  C 25.62309027777778 10.93252840909091  26.000000000000007 11.948863636363635  26 13.090909090909092  C 26.000000000000007 14.446022727272727  25.492187500000004 15.602982954545455  24.4765625 16.561789772727273  C 23.460937500000004 17.52059659090909  22.23541666666667 18  20.8 18  L 6.066666666666666 18  C 4.396527777777777 18  2.9678819444444446 17.439630681818183  1.780729166666667 16.318892045454547  C 0.5935763888888889 15.198153409090907  0 13.84943181818182  0 12.272727272727273  C 0 11.164772727272725  0.3159722222222222 10.142045454545455  0.9479166666666667 9.204545454545455  C 1.5798611111111112 8.267045454545451  2.428472222222222 7.5639204545454515  3.49375 7.095170454545454  C 3.475694444444444 6.839488636363637  3.466666666666667 6.656249999999999  3.466666666666667 6.545454545454546  C 3.466666666666667 4.738636363636362  4.14375 3.1960227272727284  5.497916666666667 1.917613636363637  C 6.852083333333334 0.6392045454545456  8.486111111111112 0  10.4 0  C 11.808333333333335 0  13.097048611111113 0.3707386363636369  14.266145833333333 1.1122159090909087  C 15.435243055555556 1.8536931818181825  16.28611111111111 2.8380681818181825  16.818749999999998 4.065340909090908  C 17.459722222222222 3.5369318181818166  18.209027777777777 3.2727272727272716  19.066666666666666 3.2727272727272716  C 20.023611111111112 3.2727272727272716  20.840625 3.592329545454546  21.517708333333335 4.231534090909092  C 22.194791666666667 4.870738636363637  22.533333333333335 5.642045454545453  22.533333333333335 6.545454545454546  C 22.533333333333335 7.193181818181817  22.34826388888889 7.781249999999999  21.978125000000002 8.309659090909092  C 23.151736111111113 8.573863636363637  24.11545138888889 9.151278409090907  24.869270833333335 10.041903409090908  Z " stroke-width="4" stroke="#00adef" fill="none" transform="matrix(1 0 0 1 359 5409 )" mask="url(#clip3)" />
  </g>
</svg>